<?xml version="1.0" encoding="UTF-8" standalone="no"?>
<svg
   height="819.87256"
   width="781.33502"
   version="1.1"
   id="svg1"
   xmlns="http://www.w3.org/2000/svg"
   xmlns:svg="http://www.w3.org/2000/svg">
  <defs
     id="defs1" />
  <g
     id="Layer-1"
     transform="translate(-194.15601,-88.422401)">
    <g
       opacity="1"
       id="g3">
      <path
         d="M 630.59,908.295 920.59,350.394 584.837,854.53 Z"
         fill="#00a2ba"
         fill-rule="nonzero"
         opacity="1"
         stroke="none"
         id="path2" />
      <path
         d="m 837.812,158.812 -174.218,63.813 25.156,28.906 z m -310.343,113.657 -333.313,122.093 156,67.594 235.25,-146.344 c -16.679,-12.187 -38.015,-27.991 -57.937,-43.343 z"
         fill="#00a2ba"
         fill-rule="nonzero"
         opacity="1"
         stroke="none"
         id="path3" />
    </g>
    <g
       opacity="1"
       id="g7">
      <path
         d="M 512,856.641 194.165,436.664 352.357,512.007 975.491,166.829 Z"
         fill="#00a2ba"
         fill-rule="nonzero"
         opacity="1"
         stroke="none"
         id="path4" />
      <path
         d="m 457.125,166.844 -175.594,263.406 44.531,69.25 96.407,149.844 0.469,89.594 L 512,856.656 843.469,363.312 783.406,273.219 712.5,166.844 584.812,279.406 Z"
         fill="#161616"
         fill-rule="nonzero"
         opacity="1"
         stroke="none"
         id="path6" />
      <path
         d="m 584.828,88.4224 -21.906,79.7186 h -32.094 l 54,77.094 54,-77.094 h -32.094 z"
         fill="#00a2ba"
         fill-rule="nonzero"
         opacity="1"
         stroke="none"
         id="path7" />
    </g>
    <g
       opacity="1"
       id="g14">
      <path
         d="m 532.843,392.531 -42.505,-63.416 h -67.125 l -53.525,49.459"
         fill="none"
         opacity="1"
         stroke="#00a2ba"
         stroke-linecap="butt"
         stroke-linejoin="miter"
         stroke-width="10.5103"
         id="path8" />
      <path
         d="m 636.831,392.531 42.504,-63.416 h 67.125 l 53.525,49.459"
         fill="none"
         opacity="1"
         stroke="#00a2ba"
         stroke-linecap="butt"
         stroke-linejoin="miter"
         stroke-width="10.5103"
         id="path9" />
      <path
         d="m 372.154,397.574 v 54.765 l 52.818,34.206 87.028,-0.006"
         fill="none"
         opacity="1"
         stroke="#00a2ba"
         stroke-linecap="butt"
         stroke-linejoin="miter"
         stroke-width="15.1135"
         id="path10" />
      <path
         d="m 539.953,297.407 h 89.767 l -44.883,63.416 z"
         fill="#00a2ba"
         fill-rule="nonzero"
         opacity="1"
         stroke="none"
         id="path11" />
      <path
         d="m 553.823,527.65 h 62.027 c 8.296,0 10.607,5.074 5.163,11.333 l -26.318,30.257 c -5.445,6.259 -14.272,6.259 -19.716,0 l -26.318,-30.257 c -5.445,-6.259 -3.133,-11.333 5.162,-11.333 z"
         fill="#00a2ba"
         fill-rule="nonzero"
         opacity="1"
         stroke="none"
         id="path12" />
    </g>
  </g>
</svg>
